# xmcd
#
# Track frame offsets:
#	150
#	16459
#	35063
#	52526
#	70379
#	89372
#	110644
#	128949
#	146047
#	164161
#	187041
#	205102
#
# Disc length: 2958 seconds
#
# Revision: 0
# Processed by: cddbd v1.5.1PL2 Copyright (c) Steve Scherf et al.
# Submitted via: dBpowerAMP V4.0
#
DISCID=b30b8c0c
DTITLE=Paulette Carlson - It`s About Time
DYEAR=2005
DGENRE=Country
TTITLE0=I Knew a Good Thing When I Had It
TTITLE1=That Old Glass Case
TTITLE2=I Wish You Wouldn`t Stand Quite So Close
TTITLE3=Cowgirl Angel
TTITLE4=Only in Your Dreams
TTITLE5=My Love is in America
TTITLE6=He`s Funny That Way
TTITLE7=She Rides For the Brand
TTITLE8=Twenty Years Ago
TTITLE9=Thank You Vets
TTITLE10=Rejoice for the Moment
TTITLE11=It`s About Time Now
EXTD=
EXTT0=
EXTT1=
EXTT2=
EXTT3=
EXTT4=
EXTT5=
EXTT6=
EXTT7=
EXTT8=
EXTT9=
EXTT10=
EXTT11=
PLAYORDER=
